<svg width="27" height="29" viewBox="0 0 27 29" fill="none" xmlns="http://www.w3.org/2000/svg">
<path fill-rule="evenodd" clip-rule="evenodd" d="M21.6917 5.54205H10.1807V0.658569L26.5752 0.658569V17.0531H21.6917V5.54205Z" fill="#FFC01E"/>
<path fill-rule="evenodd" clip-rule="evenodd" d="M12.7002 15.2593C11.9544 14.761 11.0777 14.4951 10.1808 14.4951V9.6116C12.0436 9.6116 13.8645 10.164 15.4133 11.1988C16.9621 12.2337 18.1692 13.7046 18.8821 15.4256C19.5949 17.1465 19.7814 19.0402 19.418 20.8671C19.0546 22.6941 18.1576 24.3722 16.8405 25.6894C15.5233 27.0065 13.8451 27.9035 12.0182 28.2669C10.1913 28.6303 8.29759 28.4438 6.57665 27.731C4.85572 27.0181 3.3848 25.811 2.34993 24.2622C1.31505 22.7134 0.762692 20.8925 0.762695 19.0297L5.64617 19.0297C5.64617 19.9266 5.91212 20.8033 6.4104 21.5491C6.90867 22.2948 7.61689 22.876 8.44549 23.2192C9.27409 23.5624 10.1859 23.6522 11.0655 23.4773C11.9451 23.3023 12.7531 22.8704 13.3873 22.2362C14.0215 21.602 14.4534 20.794 14.6284 19.9144C14.8033 19.0348 14.7135 18.123 14.3703 17.2944C14.0271 16.4658 13.4459 15.7576 12.7002 15.2593Z" fill="#1FCB4F"/>
</svg>
